<svg xmlns="http://www.w3.org/2000/svg" width="512" height="512" viewBox="0 0 108 108">
  <rect width="108" height="108" fill="#000000"/>
  <g fill="#FFFFFF" fill-opacity="0.35">
    <rect x="16" y="14" width="1" height="1"/><rect x="16" y="18" width="1" height="1"/><rect x="16" y="22" width="1" height="1"/>
    <rect x="16" y="82" width="1" height="1"/><rect x="16" y="86" width="1" height="1"/><rect x="16" y="90" width="1" height="1"/>
    <rect x="27" y="12" width="1" height="1"/><rect x="27" y="16" width="1" height="1"/><rect x="27" y="20" width="1" height="1"/>
    <rect x="27" y="84" width="1" height="1"/><rect x="27" y="88" width="1" height="1"/><rect x="27" y="92" width="1" height="1"/>
    <rect x="80" y="14" width="1" height="1"/><rect x="80" y="18" width="1" height="1"/><rect x="80" y="22" width="1" height="1"/>
    <rect x="80" y="82" width="1" height="1"/><rect x="80" y="86" width="1" height="1"/><rect x="80" y="90" width="1" height="1"/>
    <rect x="91" y="12" width="1" height="1"/><rect x="91" y="16" width="1" height="1"/><rect x="91" y="20" width="1" height="1"/>
    <rect x="91" y="84" width="1" height="1"/><rect x="91" y="88" width="1" height="1"/><rect x="91" y="92" width="1" height="1"/>
    <rect x="53" y="10" width="1" height="1"/><rect x="54" y="10" width="1" height="1"/>
    <rect x="53" y="94" width="1" height="1"/><rect x="54" y="94" width="1" height="1"/>
  </g>
  <ellipse cx="54" cy="54" rx="40" ry="26" fill="#000000" stroke="#FFFFFF" stroke-width="1.0"/>
  <circle cx="54" cy="54" r="22" fill="#FFFFFF" fill-opacity="0.85"/>
  <circle cx="54" cy="54" r="21" fill="none" stroke="#FFFFFF" stroke-width="0.6" stroke-opacity="0.5"/>
  <circle cx="54" cy="54" r="16" fill="none" stroke="#FFFFFF" stroke-width="0.4" stroke-opacity="0.3"/>
  <circle cx="54" cy="54" r="9" fill="#000000"/>
  <circle cx="54" cy="54" r="8.5" fill="none" stroke="#FFFFFF" stroke-width="0.4" stroke-opacity="0.4"/>
  <line x1="54" y1="23" x2="54" y2="29" stroke="#FFFFFF" stroke-width="1.2" stroke-linecap="round"/>
  <line x1="54" y1="79" x2="54" y2="85" stroke="#FFFFFF" stroke-width="1.2" stroke-linecap="round"/>
  <line x1="23" y1="54" x2="29" y2="54" stroke="#FFFFFF" stroke-width="1.2" stroke-linecap="round"/>
  <line x1="79" y1="54" x2="85" y2="54" stroke="#FFFFFF" stroke-width="1.2" stroke-linecap="round"/>
  <circle cx="54" cy="54" r="1.5" fill="#FFFFFF"/>
  <ellipse cx="44" cy="44" rx="3.5" ry="1.5" fill="white" fill-opacity="0.30"/>
</svg>
